<?xml version="1.0" encoding="UTF-8" standalone="no"?>
<!-- Created with Inkscape (http://www.inkscape.org/) -->

<svg
   xmlns:dc="http://purl.org/dc/elements/1.1/"
   xmlns:cc="http://creativecommons.org/ns#"
   xmlns:rdf="http://www.w3.org/1999/02/22-rdf-syntax-ns#"
   xmlns:svg="http://www.w3.org/2000/svg"
   xmlns="http://www.w3.org/2000/svg"
   xmlns:sodipodi="http://sodipodi.sourceforge.net/DTD/sodipodi-0.dtd"
   xmlns:inkscape="http://www.inkscape.org/namespaces/inkscape"
   width="744.09448"
   height="1052.3622"
   id="svg2"
   version="1.1"
   inkscape:version="0.48.4 r9939"
   sodipodi:docname="Deckblatt.svg">
  <defs
     id="defs4" />
  <sodipodi:namedview
     id="base"
     pagecolor="#ffffff"
     bordercolor="#666666"
     borderopacity="1.0"
     inkscape:pageopacity="0.0"
     inkscape:pageshadow="2"
     inkscape:zoom="1.979899"
     inkscape:cx="352.64708"
     inkscape:cy="627.53282"
     inkscape:document-units="mm"
     inkscape:current-layer="layer3"
     showgrid="false"
     inkscape:window-width="1680"
     inkscape:window-height="1000"
     inkscape:window-x="0"
     inkscape:window-y="0"
     inkscape:window-maximized="1"
     showguides="true"
     inkscape:guide-bbox="true"
     units="mm"
     inkscape:snap-grids="false"
     inkscape:snap-bbox="true"
     inkscape:snap-bbox-midpoints="true"
     inkscape:snap-global="true"
     inkscape:snap-to-guides="true">
    <sodipodi:guide
       orientation="0,1"
       position="-35.433071,350.7874"
       id="guide3069" />
    <sodipodi:guide
       orientation="0,1"
       position="-35.433071,701.5748"
       id="guide3071" />
    <inkscape:grid
       units="mm"
       empspacing="10"
       visible="true"
       enabled="true"
       snapvisiblegridlinesonly="true"
       type="xygrid"
       id="grid3073" />
    <sodipodi:guide
       orientation="0,1"
       position="-35.433071,526.1811"
       id="guide3079" />
    <sodipodi:guide
       orientation="0,1"
       position="-35.433071,175.3937"
       id="guide3081" />
    <sodipodi:guide
       orientation="0,1"
       position="-35.433071,876.9685"
       id="guide3083" />
    <sodipodi:guide
       orientation="0,1"
       position="-35.433071,789.27165"
       id="guide3085" />
    <sodipodi:guide
       orientation="0,1"
       position="-35.433071,613.87795"
       id="guide3087" />
    <sodipodi:guide
       orientation="0,1"
       position="-35.433071,87.69685"
       id="guide3089" />
  </sodipodi:namedview>
  <metadata
     id="metadata7">
    <rdf:RDF>
      <cc:Work
         rdf:about="">
        <dc:format>image/svg+xml</dc:format>
        <dc:type
           rdf:resource="http://purl.org/dc/dcmitype/StillImage" />
        <dc:title />
      </cc:Work>
    </rdf:RDF>
  </metadata>
  <g
     inkscape:groupmode="layer"
     id="layer3"
     inkscape:label="Deckblatt"
     transform="translate(0,-2.5390623e-6)"
     style="display:inline">
    <g
       id="g3055"
       transform="translate(93.781433,248.90889)">
      <text
         sodipodi:linespacing="125%"
         id="text3047"
         y="434.14883"
         x="279.31418"
         style="font-size:16px;font-style:normal;font-variant:normal;font-weight:normal;font-stretch:normal;text-align:center;line-height:125%;letter-spacing:2.13999987px;word-spacing:0px;text-anchor:middle;fill:#000000;fill-opacity:1;stroke:none;font-family:EB Garamond 12 All SC;-inkscape-font-specification:EB Garamond 12 All SC"
         xml:space="preserve"><tspan
           y="434.14883"
           x="280.38419"
           id="tspan3049"
           sodipodi:role="line">jan dismas</tspan></text>
      <text
         sodipodi:linespacing="125%"
         id="text3051"
         y="452.66589"
         x="277.94019"
         style="font-size:12px;font-style:normal;font-variant:normal;font-weight:normal;font-stretch:normal;text-align:center;line-height:125%;letter-spacing:5.19000053px;word-spacing:0px;text-anchor:middle;fill:#d40000;fill-opacity:1;stroke:none;font-family:EB Garamond;-inkscape-font-specification:EB Garamond"
         xml:space="preserve"><tspan
           style="font-size:20px;letter-spacing:5.19000053px;fill:#d40000"
           y="452.66589"
           x="280.53519"
           id="tspan3053"
           sodipodi:role="line">ZELENKA</tspan></text>
    </g>
    <text
       xml:space="preserve"
       style="font-size:12px;font-style:normal;font-variant:normal;font-weight:normal;font-stretch:normal;text-align:center;line-height:110.00000238%;letter-spacing:0px;word-spacing:0px;text-anchor:middle;fill:#000000;fill-opacity:1;stroke:none;font-family:EB Garamond;-inkscape-font-specification:EB Garamond"
       x="372.26447"
       y="426.13623"
       id="text3061"
       sodipodi:linespacing="110%"><tspan
         sodipodi:role="line"
         x="372.26447"
         y="426.13623"
         id="tspan3067"
         style="font-size:14px;font-style:normal;line-height:110.00000238%;-inkscape-font-specification:EB Garamond">Ecce nunc benedicite Dominum.</tspan><tspan
         sodipodi:role="line"
         x="372.26447"
         y="441.53622"
         style="font-size:14px;font-style:normal;line-height:110.00000238%;-inkscape-font-specification:EB Garamond"
         id="tspan3075" /><tspan
         sodipodi:role="line"
         x="372.26447"
         y="456.93622"
         style="font-size:14px;font-style:normal;line-height:110.00000238%;-inkscape-font-specification:EB Garamond"
         id="tspan3077">ZWV Z 99</tspan></text>
    <text
       xml:space="preserve"
       style="font-size:14px;font-style:normal;font-variant:normal;font-weight:normal;font-stretch:normal;text-align:center;line-height:125%;letter-spacing:1.84000015px;word-spacing:0px;text-anchor:middle;fill:#000000;fill-opacity:1;stroke:none;font-family:EB Garamond 12 All SC;-inkscape-font-specification:EB Garamond 12 All SC"
       x="372.06738"
       y="967.76636"
       id="text3099"
       sodipodi:linespacing="125%"><tspan
         sodipodi:role="line"
         x="372.9874"
         y="967.76636"
         id="tspan3023">full score</tspan></text>
    <text
       sodipodi:linespacing="110%"
       id="text3021"
       y="876.96851"
       x="371.86884"
       style="font-size:12px;font-style:normal;font-variant:normal;font-weight:normal;font-stretch:normal;text-align:center;line-height:110.00000238%;letter-spacing:0px;word-spacing:0px;text-anchor:middle;fill:#000000;fill-opacity:1;stroke:none;font-family:EB Garamond;-inkscape-font-specification:EB Garamond"
       xml:space="preserve"><tspan
         id="tspan3032"
         style="font-size:14px;font-style:normal;line-height:110.00000238%;-inkscape-font-specification:EB Garamond"
         y="876.96851"
         x="371.86884"
         sodipodi:role="line">2 Ob / 2 Vl / Va / SATB (coro I) / SATB (coro II) / BOrg</tspan></text>
    <g
       style="font-size:72px;font-style:normal;font-variant:normal;font-weight:normal;font-stretch:normal;text-align:center;line-height:100%;letter-spacing:0px;word-spacing:0px;text-anchor:middle;fill:none;stroke:#808080;stroke-width:0.625;stroke-miterlimit:4;stroke-dasharray:none;font-family:EB Garamond;-inkscape-font-specification:EB Garamond"
       id="text3018"
       transform="translate(52.599956,179.92893)">
      <path
         d="m 141.68378,42.841602 0,-12.096 c 0,-0.935999 0.28801,-1.512 2.232,-1.512 l 8.568,0 c 3.456,0 5.256,1.152002 5.832,2.376 0.648,1.439999 1.728,2.736 2.592,2.736 0.864,0 1.152,-1.008001 1.152,-1.872 0,-0.791999 -0.36,-4.752001 -0.648,-5.904 -0.144,-0.647999 -0.72,-1.008 -1.872,-1.008 -1.29599,0 -5.544,0.36 -8.568,0.36 l -20.664,0 c -1.51199,0 -2.52,0.432001 -2.52,1.296 0,0.648 0.504,1.008001 1.152,1.224 4.104,1.151999 5.904,1.224004 5.904,5.328 l 0,26.28 c 0,2.663998 -0.936,4.104001 -3.384,5.184 -1.58399,0.72 -3.96,1.080001 -3.96,2.16 0,0.72 1.584,1.152 2.376,1.224 0.504,0 4.75201,-0.36 8.136,-0.36 7.632,0 20.66401,0.36 23.328,0.36 1.224,0 1.368,-0.288001 1.944,-1.368 0.576,-0.935999 2.736,-6.264002 2.736,-8.28 0,-1.079999 -0.288,-1.8 -1.008,-1.8 -0.648,0 -1.584,0.576001 -1.944,1.368 -2.08799,4.391996 -3.024,6.696 -8.568,6.696 l -10.08,0 c -2.08799,0 -2.736,-0.936002 -2.736,-2.808 l 0,-12.096 c 0,-1.367998 0.36001,-1.728 1.728,-1.728 l 7.56,0 c 1.512,0 2.016,0.720001 2.52,1.512 0.432,0.72 1.368,2.736 2.304,2.736 0.72,0 0.936,-1.152 0.936,-1.872 0,-0.791999 -0.072,-3.024001 -0.072,-4.104 0,-1.079999 0.288,-3.6 0.288,-4.176 0,-0.863999 -0.144,-1.44 -0.792,-1.44 -0.792,0 -1.44,1.080001 -2.232,1.8 -1.29599,1.223999 -2.088,2.016 -4.392,2.016 l -6.192,0 c -1.008,0 -1.656,-0.504001 -1.656,-2.232"
         style="fill:none;stroke:#808080;stroke-width:0.625;stroke-miterlimit:4;stroke-dasharray:none"
         id="path3025"
         inkscape:connector-curvature="0" />
      <path
         d="m 196.35766,24.697602 c -14.18399,0 -26.064,9.792014 -26.064,23.976 0,12.815987 12.52801,20.952 24.696,20.952 4.03199,0 9.072,-0.792001 11.952,-1.8 1.8,-0.647999 2.16,-1.152002 3.312,-3.528 0.648,-1.367998 2.88,-6.264 2.88,-6.84 0,-1.295998 -0.576,-2.016 -1.152,-2.016 -0.576,0 -1.008,0.144001 -1.296,0.576 -3.816,5.399995 -5.47201,10.44 -12.744,10.44 -11.44799,0 -19.584,-9.792011 -19.584,-20.808 0,-9.93599 7.27201,-17.712 16.56,-17.712 5.11199,0 12.024,1.872003 13.032,5.04 0.936,3.023997 1.8,4.536 2.88,4.536 0.792,0 1.296,-0.792001 1.296,-2.016 0,-3.959996 -0.504,-7.776 -2.16,-7.92 -1.656,-0.144 -8.13601,-2.88 -13.608,-2.88"
         style="fill:none;stroke:#808080;stroke-width:0.625;stroke-miterlimit:4;stroke-dasharray:none"
         id="path3027"
         inkscape:connector-curvature="0" />
      <path
         d="m 245.15453,24.697602 c -14.18398,0 -26.064,9.792014 -26.064,23.976 0,12.815987 12.52802,20.952 24.696,20.952 4.032,0 9.07201,-0.792001 11.952,-1.8 1.8,-0.647999 2.16001,-1.152002 3.312,-3.528 0.648,-1.367998 2.88,-6.264 2.88,-6.84 0,-1.295998 -0.576,-2.016 -1.152,-2.016 -0.576,0 -1.008,0.144001 -1.296,0.576 -3.81599,5.399995 -5.472,10.44 -12.744,10.44 -11.44798,0 -19.584,-9.792011 -19.584,-20.808 0,-9.93599 7.27201,-17.712 16.56,-17.712 5.112,0 12.024,1.872003 13.032,5.04 0.936,3.023997 1.80001,4.536 2.88,4.536 0.792,0 1.296,-0.792001 1.296,-2.016 0,-3.959996 -0.504,-7.776 -2.16,-7.92 -1.65599,-0.144 -8.136,-2.88 -13.608,-2.88"
         style="fill:none;stroke:#808080;stroke-width:0.625;stroke-miterlimit:4;stroke-dasharray:none"
         id="path3029"
         inkscape:connector-curvature="0" />
      <path
         d="m 280.19941,42.841602 0,-12.096 c 0,-0.935999 0.288,-1.512 2.232,-1.512 l 8.568,0 c 3.456,0 5.256,1.152002 5.832,2.376 0.648,1.439999 1.728,2.736 2.592,2.736 0.864,0 1.152,-1.008001 1.152,-1.872 0,-0.791999 -0.36,-4.752001 -0.648,-5.904 -0.144,-0.647999 -0.72,-1.008 -1.872,-1.008 -1.296,0 -5.544,0.36 -8.568,0.36 l -20.664,0 c -1.512,0 -2.52,0.432001 -2.52,1.296 0,0.648 0.504,1.008001 1.152,1.224 4.10399,1.151999 5.904,1.224004 5.904,5.328 l 0,26.28 c 0,2.663998 -0.936,4.104001 -3.384,5.184 -1.584,0.72 -3.96,1.080001 -3.96,2.16 0,0.72 1.584,1.152 2.376,1.224 0.504,0 4.752,-0.36 8.136,-0.36 7.63199,0 20.664,0.36 23.328,0.36 1.224,0 1.368,-0.288001 1.944,-1.368 0.576,-0.935999 2.736,-6.264002 2.736,-8.28 0,-1.079999 -0.288,-1.8 -1.008,-1.8 -0.648,0 -1.584,0.576001 -1.944,1.368 -2.088,4.391996 -3.02401,6.696 -8.568,6.696 l -10.08,0 c -2.088,0 -2.736,-0.936002 -2.736,-2.808 l 0,-12.096 c 0,-1.367998 0.36,-1.728 1.728,-1.728 l 7.56,0 c 1.512,0 2.016,0.720001 2.52,1.512 0.432,0.72 1.368,2.736 2.304,2.736 0.72,0 0.936,-1.152 0.936,-1.872 0,-0.791999 -0.072,-3.024001 -0.072,-4.104 0,-1.079999 0.288,-3.6 0.288,-4.176 0,-0.863999 -0.144,-1.44 -0.792,-1.44 -0.792,0 -1.44,1.080001 -2.232,1.8 -1.296,1.223999 -2.088,2.016 -4.392,2.016 l -6.192,0 c -1.008,0 -1.656,-0.504001 -1.656,-2.232"
         style="fill:none;stroke:#808080;stroke-width:0.625;stroke-miterlimit:4;stroke-dasharray:none"
         id="path3031"
         inkscape:connector-curvature="0" />
      <path
         d="m 332.42753,59.185602 0,-18.36 c 0,-1.583998 0.576,-1.511999 1.368,-0.72 l 22.392,24.84 c 2.736,3.023997 5.328,4.32 6.12,4.32 0.72,0 1.44,-0.144 1.44,-0.864 0,-1.943998 -0.216,-2.520003 -0.216,-5.904 l 0,-28.728 c 0,-4.175996 1.87201,-4.176001 5.976,-5.328 0.648,-0.215999 1.08,-0.576 1.08,-1.224 0,-0.863999 -1.44,-1.296 -2.52,-1.296 -2.44799,0 -3.96,0.36 -6.48,0.36 -2.59199,0 -3.744,-0.36 -6.552,-0.36 -1.07999,0 -2.52,0.432001 -2.52,1.296 0,0.648 0.504,1.008001 1.152,1.224 4.104,1.151999 5.904,1.152004 5.904,5.328 l 0,22.032 c 0,1.439999 -1.08,1.079999 -2.016,0 l -23.976,-26.928 c -0.72,-0.791999 -2.232,-2.592 -3.816,-2.592 l -7.56,0 c -1.008,0 -1.512,0.216001 -1.512,0.792 0,1.295999 2.73601,1.800002 4.32,3.456 l 2.664,2.88 c 0.792,0.935999 1.008,3.528004 1.008,6.984 l 0,18.792 c 0,2.735998 -0.936,4.968001 -3.384,6.048 -1.58399,0.72 -3.96,1.080001 -3.96,2.16 0,0.72 1.584,1.152 2.376,1.224 0.504,0 3.24001,-0.432 6.624,-0.432 3.456,0 6.624,0.432 7.128,0.432 0.792,-0.072 2.304,-0.504 2.304,-1.224 0,-1.079999 -2.376,-1.44 -3.96,-2.16 -2.44799,-1.079999 -3.384,-3.312002 -3.384,-6.048"
         style="fill:none;stroke:#808080;stroke-width:0.625;stroke-miterlimit:4;stroke-dasharray:none"
         id="path3034"
         inkscape:connector-curvature="0" />
      <path
         d="m 410.08291,33.049602 c 0,-2.807997 0.648,-3.528001 3.96,-4.608 0.648,-0.215999 1.224,-0.576 1.224,-1.224 0,-0.863999 -1.44,-1.296 -2.52,-1.296 -1.08,0 -3.528,0.36 -4.608,0.36 -1.08,0 -3.6,-0.36 -4.68,-0.36 -1.08,0 -2.52,0.432001 -2.52,1.296 0,0.648 0.576,1.080001 1.224,1.296 3.024,1.007999 3.816,0.936004 3.816,4.68 l 0,13.392 c 0,11.231989 -2.44801,18.72 -12.312,18.72 -8.78399,0 -10.872,-5.760011 -10.872,-17.28 l 0,-14.4 c 0,-2.879997 1.728,-4.176001 4.824,-5.184 0.648,-0.215999 1.08,-0.576 1.08,-1.224 0,-0.863999 -1.44,-1.296 -2.52,-1.296 -2.448,0 -5.688,0.36 -8.208,0.36 -2.592,0 -2.88,-0.36 -5.688,-0.36 -1.08,0 -2.52,0.432001 -2.52,1.296 0,0.648 0.504,1.008001 1.152,1.224 4.53599,1.511999 5.04,1.872004 5.04,5.328 l 0,16.848 c 0,11.015989 3.31201,18.288 16.2,18.288 10.58399,0 17.928,-7.272011 17.928,-18.432 l 0,-17.424"
         style="fill:none;stroke:#808080;stroke-width:0.625;stroke-miterlimit:4;stroke-dasharray:none"
         id="path3036"
         inkscape:connector-curvature="0" />
      <path
         d="m 426.22441,59.185602 0,-18.36 c 0,-1.583998 0.576,-1.511999 1.368,-0.72 l 22.392,24.84 c 2.736,3.023997 5.328,4.32 6.12,4.32 0.72,0 1.44,-0.144 1.44,-0.864 0,-1.943998 -0.216,-2.520003 -0.216,-5.904 l 0,-28.728 c 0,-4.175996 1.872,-4.176001 5.976,-5.328 0.648,-0.215999 1.08,-0.576 1.08,-1.224 0,-0.863999 -1.44,-1.296 -2.52,-1.296 -2.448,0 -3.96,0.36 -6.48,0.36 -2.592,0 -3.744,-0.36 -6.552,-0.36 -1.08,0 -2.52,0.432001 -2.52,1.296 0,0.648 0.504,1.008001 1.152,1.224 4.10399,1.151999 5.904,1.152004 5.904,5.328 l 0,22.032 c 0,1.439999 -1.08,1.079999 -2.016,0 l -23.976,-26.928 c -0.72,-0.791999 -2.232,-2.592 -3.816,-2.592 l -7.56,0 c -1.008,0 -1.512,0.216001 -1.512,0.792 0,1.295999 2.736,1.800002 4.32,3.456 l 2.664,2.88 c 0.792,0.935999 1.008,3.528004 1.008,6.984 l 0,18.792 c 0,2.735998 -0.936,4.968001 -3.384,6.048 -1.584,0.72 -3.96,1.080001 -3.96,2.16 0,0.72 1.584,1.152 2.376,1.224 0.504,0 3.24,-0.432 6.624,-0.432 3.456,0 6.624,0.432 7.128,0.432 0.792,-0.072 2.304,-0.504 2.304,-1.224 0,-1.079999 -2.376,-1.44 -3.96,-2.16 -2.448,-1.079999 -3.384,-3.312002 -3.384,-6.048"
         style="fill:none;stroke:#808080;stroke-width:0.625;stroke-miterlimit:4;stroke-dasharray:none"
         id="path3038"
         inkscape:connector-curvature="0" />
      <path
         d="m 492.93578,24.697602 c -14.18398,0 -26.064,9.792014 -26.064,23.976 0,12.815987 12.52802,20.952 24.696,20.952 4.032,0 9.07201,-0.792001 11.952,-1.8 1.8,-0.647999 2.16001,-1.152002 3.312,-3.528 0.648,-1.367998 2.88,-6.264 2.88,-6.84 0,-1.295998 -0.576,-2.016 -1.152,-2.016 -0.576,0 -1.008,0.144001 -1.296,0.576 -3.81599,5.399995 -5.472,10.44 -12.744,10.44 -11.44798,0 -19.584,-9.792011 -19.584,-20.808 0,-9.93599 7.27201,-17.712 16.56,-17.712 5.112,0 12.024,1.872003 13.032,5.04 0.936,3.023997 1.80001,4.536 2.88,4.536 0.792,0 1.296,-0.792001 1.296,-2.016 0,-3.959996 -0.504,-7.776 -2.16,-7.92 -1.65599,-0.144 -8.136,-2.88 -13.608,-2.88"
         style="fill:none;stroke:#808080;stroke-width:0.625;stroke-miterlimit:4;stroke-dasharray:none"
         id="path3040"
         inkscape:connector-curvature="0" />
      <path
         d="m 133.94941,134.3536 0,-12.888 c 0,-1.512 1.08,-1.944 2.16,-1.944 7.27199,0 10.08,2.80801 10.08,8.856 0,4.896 -2.95201,9.288 -8.352,9.288 -2.736,0 -3.888,-1.152 -3.888,-3.312 m 0,-31.896 c 0,-1.512 0.432,-1.944 3.312,-1.944 4.10399,0 7.704,2.73601 7.704,7.848 0,4.392 -4.46401,7.992 -8.856,7.992 -1.296,0 -2.16,-0.36 -2.16,-1.44 l 0,-12.456 m -3.456,-4.535998 -7.92,0 c -1.512,0 -2.52,0.432001 -2.52,1.296 0,0.648 0.504,1.007998 1.152,1.223998 4.10399,1.152 5.904,1.22401 5.904,5.328 l 0,25.416 c 0,2.664 -0.936,4.968 -3.384,6.048 -1.584,0.72 -3.96,1.08 -3.96,2.16 0,0.72 1.584,1.152 2.376,1.224 0.504,0 4.752,-0.36 8.136,-0.36 1.368,0 5.328,0.36 6.84,0.36 9.57599,0 17.064,-4.24801 17.064,-13.104 0,-5.83199 -4.32001,-9.288 -9.72,-10.08 -0.576,-0.072 -0.648,-0.792 0.144,-1.08 4.10399,-1.368 6.552,-5.256 6.552,-10.368 0,-5.47199 -5.97601,-8.423998 -11.592,-8.423998 -3.24,0 -7.344,0.36 -9.072,0.36"
         style="fill:none;stroke:#808080;stroke-width:0.625;stroke-miterlimit:4;stroke-dasharray:none"
         id="path3042"
         inkscape:connector-curvature="0" />
      <path
         d="m 171.63691,114.8416 0,-12.096 c 0,-0.936 0.288,-1.512 2.232,-1.512 l 8.568,0 c 3.456,0 5.256,1.152 5.832,2.376 0.648,1.44 1.728,2.736 2.592,2.736 0.864,0 1.152,-1.008 1.152,-1.872 0,-0.792 -0.36,-4.751999 -0.648,-5.903998 -0.144,-0.647999 -0.72,-1.008 -1.872,-1.008 -1.296,0 -5.544,0.36 -8.568,0.36 l -20.664,0 c -1.512,0 -2.52,0.432001 -2.52,1.296 0,0.648 0.504,1.007998 1.152,1.223998 4.10399,1.152 5.904,1.22401 5.904,5.328 l 0,26.28 c 0,2.664 -0.936,4.104 -3.384,5.184 -1.584,0.72 -3.96,1.08 -3.96,2.16 0,0.72 1.584,1.152 2.376,1.224 0.504,0 4.752,-0.36 8.136,-0.36 7.63199,0 20.664,0.36 23.328,0.36 1.224,0 1.368,-0.288 1.944,-1.368 0.576,-0.936 2.736,-6.264 2.736,-8.28 0,-1.08 -0.288,-1.8 -1.008,-1.8 -0.648,0 -1.584,0.576 -1.944,1.368 -2.088,4.392 -3.02401,6.696 -8.568,6.696 l -10.08,0 c -2.088,0 -2.736,-0.936 -2.736,-2.808 l 0,-12.096 c 0,-1.368 0.36,-1.728 1.728,-1.728 l 7.56,0 c 1.512,0 2.016,0.72 2.52,1.512 0.432,0.72 1.368,2.736 2.304,2.736 0.72,0 0.936,-1.152 0.936,-1.872 0,-0.792 -0.072,-3.024 -0.072,-4.104 0,-1.08 0.288,-3.6 0.288,-4.176 0,-0.864 -0.144,-1.44 -0.792,-1.44 -0.792,0 -1.44,1.08 -2.232,1.8 -1.296,1.224 -2.088,2.016 -4.392,2.016 l -6.192,0 c -1.008,0 -1.656,-0.504 -1.656,-2.232"
         style="fill:none;stroke:#808080;stroke-width:0.625;stroke-miterlimit:4;stroke-dasharray:none"
         id="path3044"
         inkscape:connector-curvature="0" />
      <path
         d="m 208.95878,131.1856 0,-18.36 c 0,-1.584 0.576,-1.512 1.368,-0.72 l 22.392,24.84 c 2.736,3.024 5.328,4.32 6.12,4.32 0.72,0 1.44,-0.144 1.44,-0.864 0,-1.944 -0.216,-2.52 -0.216,-5.904 l 0,-28.728 c 0,-4.17599 1.87201,-4.176 5.976,-5.328 0.648,-0.216 1.08,-0.575998 1.08,-1.223998 0,-0.863999 -1.44,-1.296 -2.52,-1.296 -2.44799,0 -3.96,0.36 -6.48,0.36 -2.59199,0 -3.744,-0.36 -6.552,-0.36 -1.07999,0 -2.52,0.432001 -2.52,1.296 0,0.648 0.504,1.007998 1.152,1.223998 4.104,1.152 5.904,1.15201 5.904,5.328 l 0,22.032 c 0,1.44 -1.08,1.08 -2.016,0 l -23.976,-26.928 c -0.72,-0.792 -2.232,-2.591998 -3.816,-2.591998 l -7.56,0 c -1.008,0 -1.512,0.216001 -1.512,0.792 0,1.295998 2.73601,1.799998 4.32,3.455998 l 2.664,2.88 c 0.792,0.936 1.008,3.52801 1.008,6.984 l 0,18.792 c 0,2.736 -0.936,4.968 -3.384,6.048 -1.58399,0.72 -3.96,1.08 -3.96,2.16 0,0.72 1.584,1.152 2.376,1.224 0.504,0 3.24001,-0.432 6.624,-0.432 3.456,0 6.624,0.432 7.128,0.432 0.792,-0.072 2.304,-0.504 2.304,-1.224 0,-1.08 -2.376,-1.44 -3.96,-2.16 -2.44799,-1.08 -3.384,-3.312 -3.384,-6.048"
         style="fill:none;stroke:#808080;stroke-width:0.625;stroke-miterlimit:4;stroke-dasharray:none"
         id="path3046"
         inkscape:connector-curvature="0" />
      <path
         d="m 261.91816,114.8416 0,-12.096 c 0,-0.936 0.288,-1.512 2.232,-1.512 l 8.568,0 c 3.456,0 5.256,1.152 5.832,2.376 0.648,1.44 1.728,2.736 2.592,2.736 0.864,0 1.152,-1.008 1.152,-1.872 0,-0.792 -0.36,-4.751999 -0.648,-5.903998 -0.144,-0.647999 -0.72,-1.008 -1.872,-1.008 -1.296,0 -5.544,0.36 -8.568,0.36 l -20.664,0 c -1.512,0 -2.52,0.432001 -2.52,1.296 0,0.648 0.504,1.007998 1.152,1.223998 4.10399,1.152 5.904,1.22401 5.904,5.328 l 0,26.28 c 0,2.664 -0.936,4.104 -3.384,5.184 -1.584,0.72 -3.96,1.08 -3.96,2.16 0,0.72 1.584,1.152 2.376,1.224 0.504,0 4.752,-0.36 8.136,-0.36 7.63199,0 20.664,0.36 23.328,0.36 1.224,0 1.368,-0.288 1.944,-1.368 0.576,-0.936 2.736,-6.264 2.736,-8.28 0,-1.08 -0.288,-1.8 -1.008,-1.8 -0.648,0 -1.584,0.576 -1.944,1.368 -2.088,4.392 -3.02401,6.696 -8.568,6.696 l -10.08,0 c -2.088,0 -2.736,-0.936 -2.736,-2.808 l 0,-12.096 c 0,-1.368 0.36,-1.728 1.728,-1.728 l 7.56,0 c 1.512,0 2.016,0.72 2.52,1.512 0.432,0.72 1.368,2.736 2.304,2.736 0.72,0 0.936,-1.152 0.936,-1.872 0,-0.792 -0.072,-3.024 -0.072,-4.104 0,-1.08 0.288,-3.6 0.288,-4.176 0,-0.864 -0.144,-1.44 -0.792,-1.44 -0.792,0 -1.44,1.08 -2.232,1.8 -1.296,1.224 -2.088,2.016 -4.392,2.016 l -6.192,0 c -1.008,0 -1.656,-0.504 -1.656,-2.232"
         style="fill:none;stroke:#808080;stroke-width:0.625;stroke-miterlimit:4;stroke-dasharray:none"
         id="path3048"
         inkscape:connector-curvature="0" />
      <path
         d="m 302.84003,102.9616 c 0,-1.584 3.16801,-2.304 6.264,-2.304 10.22399,0 18.36,7.77601 18.36,18.288 0,9.14399 -4.536,18.792 -13.104,18.792 -9.64799,0 -11.52,-1.296 -11.52,-6.12 l 0,-28.656 m 8.64,-5.543998 c -4.46399,0 -9.792,0.576 -14.256,0.576 -2.15999,0 -3.528,-0.072 -5.76,-0.072 -1.51199,0 -2.52,0.432001 -2.52,1.296 0,0.648 0.504,1.007998 1.152,1.223998 4.104,1.224 5.904,1.22401 5.904,5.328 l 0,26.28 c 0,2.664 -1.008,4.104 -3.384,5.184 -1.58399,0.72 -3.96,1.08 -3.96,2.16 0,0.792 1.584,1.152 2.376,1.224 0.504,0 4.75201,-0.432 8.064,-0.432 3.312,0 7.12801,0.792 13.968,0.792 15.47999,0 22.464,-11.01601 22.464,-23.472 0,-12.23999 -11.95201,-20.087998 -24.048,-20.087998"
         style="fill:none;stroke:#808080;stroke-width:0.625;stroke-miterlimit:4;stroke-dasharray:none"
         id="path3050"
         inkscape:connector-curvature="0" />
      <path
         d="m 358.98541,97.921602 c -2.448,0 -5.4,0.36 -7.92,0.36 -2.592,0 -5.184,-0.36 -7.992,-0.36 -1.08,0 -2.52,0.432001 -2.52,1.296 0,0.648 0.504,1.007998 1.152,1.223998 4.10399,1.152 5.904,1.22401 5.904,5.328 l 0,26.28 c 0,2.664 -0.936,4.104 -3.384,5.184 -1.584,0.72 -3.96,1.08 -3.96,2.16 0,0.72 1.584,1.152 2.376,1.224 0.504,0 4.752,-0.432 8.136,-0.432 3.456,0 8.208,0.432 8.712,0.432 0.792,-0.072 2.304,-0.504 2.304,-1.224 0,-1.08 -2.376,-1.44 -3.96,-2.16 -2.448,-1.08 -3.384,-2.52 -3.384,-5.184 l 0,-26.28 c 0,-4.10399 1.872,-4.176 5.976,-5.328 0.648,-0.216 1.08,-0.575998 1.08,-1.223998 0,-0.863999 -1.44,-1.296 -2.52,-1.296"
         style="fill:none;stroke:#808080;stroke-width:0.625;stroke-miterlimit:4;stroke-dasharray:none"
         id="path3052"
         inkscape:connector-curvature="0" />
      <path
         d="m 392.67016,96.697602 c -14.18399,0 -26.064,9.792018 -26.064,23.975998 0,12.81599 12.52801,20.952 24.696,20.952 4.03199,0 9.072,-0.792 11.952,-1.8 1.8,-0.648 2.16,-1.152 3.312,-3.528 0.648,-1.368 2.88,-6.264 2.88,-6.84 0,-1.296 -0.576,-2.016 -1.152,-2.016 -0.576,0 -1.008,0.144 -1.296,0.576 -3.816,5.4 -5.47201,10.44 -12.744,10.44 -11.44799,0 -19.584,-9.79201 -19.584,-20.808 0,-9.93599 7.27201,-17.711998 16.56,-17.711998 5.11199,0 12.024,1.872008 13.032,5.039998 0.936,3.024 1.8,4.536 2.88,4.536 0.792,0 1.296,-0.792 1.296,-2.016 0,-3.95999 -0.504,-7.775998 -2.16,-7.919998 -1.656,-0.144 -8.13601,-2.88 -13.608,-2.88"
         style="fill:none;stroke:#808080;stroke-width:0.625;stroke-miterlimit:4;stroke-dasharray:none"
         id="path3054"
         inkscape:connector-curvature="0" />
      <path
         d="m 432.25103,97.921602 c -2.44799,0 -5.4,0.36 -7.92,0.36 -2.59199,0 -5.184,-0.36 -7.992,-0.36 -1.07999,0 -2.52,0.432001 -2.52,1.296 0,0.648 0.504,1.007998 1.152,1.223998 4.104,1.152 5.904,1.22401 5.904,5.328 l 0,26.28 c 0,2.664 -0.936,4.104 -3.384,5.184 -1.58399,0.72 -3.96,1.08 -3.96,2.16 0,0.72 1.584,1.152 2.376,1.224 0.504,0 4.75201,-0.432 8.136,-0.432 3.456,0 8.208,0.432 8.712,0.432 0.792,-0.072 2.304,-0.504 2.304,-1.224 0,-1.08 -2.376,-1.44 -3.96,-2.16 -2.44799,-1.08 -3.384,-2.52 -3.384,-5.184 l 0,-26.28 c 0,-4.10399 1.87201,-4.176 5.976,-5.328 0.648,-0.216 1.08,-0.575998 1.08,-1.223998 0,-0.863999 -1.44,-1.296 -2.52,-1.296"
         style="fill:none;stroke:#808080;stroke-width:0.625;stroke-miterlimit:4;stroke-dasharray:none"
         id="path3056"
         inkscape:connector-curvature="0" />
      <path
         d="m 455.71178,104.1136 0,27.936 c 0,2.664 -0.936,4.104 -3.384,5.184 -1.58399,0.72 -3.96,1.08 -3.96,2.16 0,0.72 1.584,1.152 2.376,1.224 0.504,0 4.75201,-0.432 8.136,-0.432 3.456,0 8.208,0.432 8.712,0.432 0.792,-0.072 2.304,-0.504 2.304,-1.224 0,-1.08 -2.376,-1.44 -3.96,-2.16 -2.44799,-1.08 -3.384,-2.52 -3.384,-5.184 l 0,-27.936 c 0,-0.72 0.144,-2.232 0.864,-2.232 l 11.16,0 c 1.008,0 1.944,0.936 2.592,2.016 0.792,1.368 1.872,3.24 2.592,3.24 0.864,0 1.008,-0.576 1.008,-1.656 0,-0.792 -0.144,-3.24 -0.144,-4.968 0,-1.583996 0.288,-2.447998 0.288,-3.095998 0,-0.575999 -0.432,-1.296 -1.296,-1.296 -0.864,0 -1.224,0.576001 -2.088,1.08 -1.29599,0.72 -2.448,1.224 -5.04,1.224 l -25.128,0 c -3.95999,0 -5.76,-2.16 -6.84,-2.16 -0.72,0 -1.224,0.864001 -1.224,1.8 0,0.72 0.144,2.087998 0.144,3.239998 0,2.304 -0.36,2.88 -0.36,4.536 0,0.648 0.36,1.656 1.296,1.656 1.008,0 1.512,-2.016 2.304,-3.456 0.72,-1.296 1.22401,-2.16 3.096,-2.16 l 8.784,0 c 0.72,0 1.152,0.792 1.152,2.232"
         style="fill:none;stroke:#808080;stroke-width:0.625;stroke-miterlimit:4;stroke-dasharray:none"
         id="path3058"
         inkscape:connector-curvature="0" />
      <path
         d="m 494.79316,114.8416 0,-12.096 c 0,-0.936 0.288,-1.512 2.232,-1.512 l 8.568,0 c 3.456,0 5.256,1.152 5.832,2.376 0.648,1.44 1.728,2.736 2.592,2.736 0.864,0 1.152,-1.008 1.152,-1.872 0,-0.792 -0.36,-4.751999 -0.648,-5.903998 -0.144,-0.647999 -0.72,-1.008 -1.872,-1.008 -1.296,0 -5.544,0.36 -8.568,0.36 l -20.664,0 c -1.512,0 -2.52,0.432001 -2.52,1.296 0,0.648 0.504,1.007998 1.152,1.223998 4.10399,1.152 5.904,1.22401 5.904,5.328 l 0,26.28 c 0,2.664 -0.936,4.104 -3.384,5.184 -1.584,0.72 -3.96,1.08 -3.96,2.16 0,0.72 1.584,1.152 2.376,1.224 0.504,0 4.752,-0.36 8.136,-0.36 7.63199,0 20.664,0.36 23.328,0.36 1.224,0 1.368,-0.288 1.944,-1.368 0.576,-0.936 2.736,-6.264 2.736,-8.28 0,-1.08 -0.288,-1.8 -1.008,-1.8 -0.648,0 -1.584,0.576 -1.944,1.368 -2.088,4.392 -3.02401,6.696 -8.568,6.696 l -10.08,0 c -2.088,0 -2.736,-0.936 -2.736,-2.808 l 0,-12.096 c 0,-1.368 0.36,-1.728 1.728,-1.728 l 7.56,0 c 1.512,0 2.016,0.72 2.52,1.512 0.432,0.72 1.368,2.736 2.304,2.736 0.72,0 0.936,-1.152 0.936,-1.872 0,-0.792 -0.072,-3.024 -0.072,-4.104 0,-1.08 0.288,-3.6 0.288,-4.176 0,-0.864 -0.144,-1.44 -0.792,-1.44 -0.792,0 -1.44,1.08 -2.232,1.8 -1.296,1.224 -2.088,2.016 -4.392,2.016 l -6.192,0 c -1.008,0 -1.656,-0.504 -1.656,-2.232"
         style="fill:none;stroke:#808080;stroke-width:0.625;stroke-miterlimit:4;stroke-dasharray:none"
         id="path3060"
         inkscape:connector-curvature="0" />
    </g>
  </g>
</svg>
